HIERARCHY
ROOT Hips
{
  OFFSET 13.9192 87.0099 7.45665
  CHANNELS 6 Xposition Yposition Zposition Zrotation Xrotation Yrotation
  JOINT RightUpLeg
  {
    OFFSET -9.25892 -1.51126 0.0103963
    CHANNELS 3 Zrotation Xrotation Yrotation
    JOINT RightLeg
    {
      OFFSET -0.0493687 -41.9019 0.103893
      CHANNELS 3 Zrotation Xrotation Yrotation
      JOINT RightFoot
      {
        OFFSET -1.32222 -41.6903 -0.651221
        CHANNELS 3 Zrotation Xrotation Yrotation
        End Site
        {
          OFFSET 0 -7.69 17.5
        }
      }
    }
  }
  JOINT LeftUpLeg
  {
    OFFSET 9.27814 -1.57439 0.0532125
    CHANNELS 3 Zrotation Xrotation Yrotation
    JOINT LeftLeg
    {
      OFFSET 0.0812204 -41.881 0.0464493
      CHANNELS 3 Zrotation Xrotation Yrotation
      JOINT LeftFoot
      {
        OFFSET -0.0110097 -42.3775 0.673629
        CHANNELS 3 Zrotation Xrotation Yrotation
        End Site
        {
          OFFSET 0 -7.69 17.5
        }
      }
    }
  }
  JOINT Spine
  {
    OFFSET 0.0235844 14.3019 0.0112981
    CHANNELS 3 Zrotation Xrotation Yrotation
    JOINT Spine1
    {
      OFFSET 0.0175769 9.71285 0.00895779
      CHANNELS 3 Zrotation Xrotation Yrotation
      JOINT Spine2
      {
        OFFSET 0.0285364 10.1117 0.00103808
        CHANNELS 3 Zrotation Xrotation Yrotation
        JOINT Spine3
        {
          OFFSET 0.0259409 9.72657 0.0104237
          CHANNELS 3 Zrotation Xrotation Yrotation
          JOINT Neck
          {
            OFFSET -0.0111787 10.3773 0.0255796
            CHANNELS 3 Zrotation Xrotation Yrotation
            JOINT Head
            {
              OFFSET -0.00267722 9.48908 0.0510269
              CHANNELS 3 Zrotation Xrotation Yrotation
              End Site
              {
                OFFSET 0 15.95 0
              }
            }
          }
          JOINT RightShoulder
          {
            OFFSET -3.1909 6.94591 0.0199124
            CHANNELS 3 Zrotation Xrotation Yrotation
            JOINT RightArm
            {
              OFFSET -12.7524 0.0197095 0.0110528
              CHANNELS 3 Zrotation Xrotation Yrotation
              JOINT RightForeArm
              {
                OFFSET -26.4891 -0.0606575 0.0254635
                CHANNELS 3 Zrotation Xrotation Yrotation
                JOINT RightHand
                {
                  OFFSET -26.017 -0.0465962 -0.00264686
                  CHANNELS 3 Zrotation Xrotation Yrotation
                  JOINT RightHandThumb1
                  {
                    OFFSET -2.48905 0.190105 3.12053
                    CHANNELS 3 Zrotation Xrotation Yrotation
                    JOINT RightHandThumb2
                    {
                      OFFSET -3.68274 0 0
                      CHANNELS 3 Zrotation Xrotation Yrotation
                      JOINT RightHandThumb3
                      {
                        OFFSET -2.55832 0 0
                        CHANNELS 3 Zrotation Xrotation Yrotation
                        End Site
                        {
                          OFFSET -2.194 0 0
                        }
                      }
                    }
                  }
                  JOINT RightInHandIndex
                  {
                    OFFSET -3.22368 0.508421 1.97842
                    CHANNELS 3 Zrotation Xrotation Yrotation
                    JOINT RightHandIndex1
                    {
                      OFFSET -5.21684 -0.091368 0.999158
                      CHANNELS 3 Zrotation Xrotation Yrotation
                      JOINT RightHandIndex2
                      {
                        OFFSET -3.61937 0 0
                        CHANNELS 3 Zrotation Xrotation Yrotation
                        JOINT RightHandIndex3
                        {
                          OFFSET -2.0521 0 0
                          CHANNELS 3 Zrotation Xrotation Yrotation
                          End Site
                          {
                            OFFSET -1.805 0 0
                          }
                        }
                      }
                    }
                  }
                  JOINT RightInHandMiddle
                  {
                    OFFSET -3.38211 0.517263 0.756737
                    CHANNELS 3 Zrotation Xrotation Yrotation
                    JOINT RightHandMiddle1
                    {
                      OFFSET -5.17411 -0.084 0.313895
                      CHANNELS 3 Zrotation Xrotation Yrotation
                      JOINT RightHandMiddle2
                      {
                        OFFSET -3.94947 0 0
                        CHANNELS 3 Zrotation Xrotation Yrotation
                        JOINT RightHandMiddle3
                        {
                          OFFSET -2.47579 0 0
                          CHANNELS 3 Zrotation Xrotation Yrotation
                          End Site
                          {
                            OFFSET -1.975 0 0
                          }
                        }
                      }
                    }
                  }
                  JOINT RightInHandRing
                  {
                    OFFSET -3.36516 0.537895 -0.128947
                    CHANNELS 3 Zrotation Xrotation Yrotation
                    JOINT RightHandRing1
                    {
                      OFFSET -4.63474 -0.022105 -0.478947
                      CHANNELS 3 Zrotation Xrotation Yrotation
                      JOINT RightHandRing2
                      {
                        OFFSET -3.44238 0 0
                        CHANNELS 3 Zrotation Xrotation Yrotation
                        JOINT RightHandRing3
                        {
                          OFFSET -2.3881 0 0
                          CHANNELS 3 Zrotation Xrotation Yrotation
                          End Site
                          {
                            OFFSET -1.857 0 0
                          }
                        }
                      }
                    }
                  }
                  JOINT RightInHandPinky
                  {
                    OFFSET -3.16105 0.469368 -1.20179
                    CHANNELS 3 Zrotation Xrotation Yrotation
                    JOINT RightHandPinky1
                    {
                      OFFSET -4.14105 -0.022105 -1.09053
                      CHANNELS 3 Zrotation Xrotation Yrotation
                      JOINT RightHandPinky2
                      {
                        OFFSET -2.75653 0 0
                        CHANNELS 3 Zrotation Xrotation Yrotation
                        JOINT RightHandPinky3
                        {
                          OFFSET -1.74189 0 0
                          CHANNELS 3 Zrotation Xrotation Yrotation
                          End Site
                          {
                            OFFSET -1.645 0 0
                          }
                        }
                      }
                    }
                  }
                }
              }
            }
          }
          JOINT LeftShoulder
          {
            OFFSET 3.2161 6.92611 -0.00186679
            CHANNELS 3 Zrotation Xrotation Yrotation
            JOINT LeftArm
            {
              OFFSET 12.7484 -0.0283569 -0.0302446
              CHANNELS 3 Zrotation Xrotation Yrotation
              JOINT LeftForeArm
              {
                OFFSET 26.4766 -0.0880322 -0.0033192
                CHANNELS 3 Zrotation Xrotation Yrotation
                JOINT LeftHand
                {
                  OFFSET 26.0079 -0.0456134 -0.0735001
                  CHANNELS 3 Zrotation Xrotation Yrotation
                  JOINT LeftHandThumb1
                  {
                    OFFSET 2.48905 0.190105 3.12053
                    CHANNELS 3 Zrotation Xrotation Yrotation
                    JOINT LeftHandThumb2
                    {
                      OFFSET 3.68274 0 0
                      CHANNELS 3 Zrotation Xrotation Yrotation
                      JOINT LeftHandThumb3
                      {
                        OFFSET 2.55832 0 0
                        CHANNELS 3 Zrotation Xrotation Yrotation
                        End Site
                        {
                          OFFSET 2.194 0 0
                        }
                      }
                    }
                  }
                  JOINT LeftInHandIndex
                  {
                    OFFSET 3.22368 0.508421 1.97842
                    CHANNELS 3 Zrotation Xrotation Yrotation
                    JOINT LeftHandIndex1
                    {
                      OFFSET 5.21684 -0.091368 0.999158
                      CHANNELS 3 Zrotation Xrotation Yrotation
                      JOINT LeftHandIndex2
                      {
                        OFFSET 3.61937 0 0
                        CHANNELS 3 Zrotation Xrotation Yrotation
                        JOINT LeftHandIndex3
                        {
                          OFFSET 2.0521 0 0
                          CHANNELS 3 Zrotation Xrotation Yrotation
                          End Site
                          {
                            OFFSET 1.805 0 0
                          }
                        }
                      }
                    }
                  }
                  JOINT LeftInHandMiddle
                  {
                    OFFSET 3.38211 0.517263 0.756737
                    CHANNELS 3 Zrotation Xrotation Yrotation
                    JOINT LeftHandMiddle1
                    {
                      OFFSET 5.17411 -0.084 0.313895
                      CHANNELS 3 Zrotation Xrotation Yrotation
                      JOINT LeftHandMiddle2
                      {
                        OFFSET 3.94947 0 0
                        CHANNELS 3 Zrotation Xrotation Yrotation
                        JOINT LeftHandMiddle3
                        {
                          OFFSET 2.47579 0 0
                          CHANNELS 3 Zrotation Xrotation Yrotation
                          End Site
                          {
                            OFFSET 1.975 0 0
                          }
                        }
                      }
                    }
                  }
                  JOINT LeftInHandRing
                  {
                    OFFSET 3.36516 0.537895 -0.128947
                    CHANNELS 3 Zrotation Xrotation Yrotation
                    JOINT LeftHandRing1
                    {
                      OFFSET 4.63474 -0.022105 -0.478947
                      CHANNELS 3 Zrotation Xrotation Yrotation
                      JOINT LeftHandRing2
                      {
                        OFFSET 3.44238 0 0
                        CHANNELS 3 Zrotation Xrotation Yrotation
                        JOINT LeftHandRing3
                        {
                          OFFSET 2.3881 0 0
                          CHANNELS 3 Zrotation Xrotation Yrotation
                          End Site
                          {
                            OFFSET 1.857 0 0
                          }
                        }
                      }
                    }
                  }
                  JOINT LeftInHandPinky
                  {
                    OFFSET 3.16105 0.469368 -1.20179
                    CHANNELS 3 Zrotation Xrotation Yrotation
                    JOINT LeftHandPinky1
                    {
                      OFFSET 4.14105 -0.022105 -1.09053
                      CHANNELS 3 Zrotation Xrotation Yrotation
                      JOINT LeftHandPinky2
                      {
                        OFFSET 2.75653 0 0
                        CHANNELS 3 Zrotation Xrotation Yrotation
                        JOINT LeftHandPinky3
                        {
                          OFFSET 1.74189 0 0
                          CHANNELS 3 Zrotation Xrotation Yrotation
                          End Site
                          {
                            OFFSET 1.645 0 0
                          }
                        }
                      }
                    }
                  }
                }
              }
            }
          }
        }
      }
    }
  }
}
MOTION
Frames: 3
Frame Time: 0.00833333
1.499990289966822274e+02 5.632632426162659895e-04 1.214104587188269283e-03 1.294829657480331409e-03 -2.354107725945851423e-03 -1.049864546675868815e-03 -4.416383649282264526e-03 -1.809599598645829149e-03 3.150945052391969717e-03 1.665993193204174175e-02 -8.121367303480873240e-03 -6.831385602662502950e-03 -8.788285214200948492e-03 1.872531730068712494e-03 1.874178931891542230e-03 1.618083019542516238e-03 1.708637936082076265e-03 -1.344568373221402026e-02 -1.896752612848934608e-02 -4.790094111525823248e-03 2.436908778626365596e-02 2.935902602701209035e-03 2.934410081779608402e-03 2.479636962434017371e-03 1.212879532348911955e-03 -7.492327151590126967e-04 7.257187675531672714e-04 2.653348851546645623e-04 -1.983227295453278926e-04 3.178781137089491658e-04 4.157566595129172956e-04 -3.682554560940116831e-04 4.207693722939368722e-04 -1.552495124618601553e-04 1.492854956849364772e-03 1.377541142075370487e-03 -3.133832703681553589e-03 -1.100183337839962189e-03 7.485427002478103886e-02 -1.726836612885193861e-04 5.236915571699585908e-02 -2.060857509804652973e-02 1.510047832053062339e-03 1.077124255531850179e-04 -5.268226994916244861e-03 -1.613391196813192610e-02 -2.482453039618830702e-03 -2.502022074172777569e-02 -7.640380713855782213e-02 -2.422161551740225835e-02 1.229788314517514525e-01 -9.257928925096284636e-03 -4.959249147372003785e-02 -1.369529331314248144e-01 0.000000000000000000e+00 0.000000000000000000e+00 0.000000000000000000e+00 4.690153253293271924e-15 2.619641380681454981e-15 0.000000000000000000e+00 3.155609405509794382e-15 6.612084511165974212e-15 0.000000000000000000e+00 4.804658986118364599e-15 7.978600702916328038e-16 -2.886705099109291253e-15 0.000000000000000000e+00 0.000000000000000000e+00 0.000000000000000000e+00 0.000000000000000000e+00 2.478587334613004953e-15 -8.025734220079638256e-15 0.000000000000000000e+00 8.352130328482621547e-15 -1.117301514193342191e-14 4.804658986118364599e-15 7.978600702916328038e-16 -2.886705099109291253e-15 0.000000000000000000e+00 -7.204103186641536589e-15 -1.228516662658818745e-14 0.000000000000000000e+00 -3.531203634392401982e-15 -6.971237290841435081e-15 0.000000000000000000e+00 -2.051972829354587115e-15 1.730594871521057434e-15 4.804658986118364599e-15 7.978600702916328038e-16 -2.886705099109291253e-15 0.000000000000000000e+00 0.000000000000000000e+00 0.000000000000000000e+00 0.000000000000000000e+00 1.107563761286040795e-15 -3.291518600941429902e-15 0.000000000000000000e+00 -5.572689016933978117e-15 1.824118497234137725e-15 4.804658986118364599e-15 7.978600702916328038e-16 -2.886705099109291253e-15 0.000000000000000000e+00 0.000000000000000000e+00 0.000000000000000000e+00 0.000000000000000000e+00 -6.536695517823110638e-15 -3.085617004233709965e-15 0.000000000000000000e+00 -3.188469286727096617e-15 -2.936669404490750605e-15 -5.346590098759994997e-03 -8.778265804163381007e-04 -5.442562212189406418e-03 2.116311681082117847e-03 -2.542620656222867488e-03 1.570457320558059193e-03 -1.273497572279241041e-01 -4.803794209546780047e-02 5.586081698902528592e-01 1.645859308604792071e-01 -1.820771632310053401e-01 -5.071009453790054078e-01 0.000000000000000000e+00 0.000000000000000000e+00 0.000000000000000000e+00 6.866210729440777951e-15 -1.543842111434499450e-15 0.000000000000000000e+00 -5.618564354882954672e-15 -1.844891200262504578e-15 0.000000000000000000e+00 1.051495705673540694e-15 -2.497660864625908634e-15 1.323807930292283148e-14 0.000000000000000000e+00 0.000000000000000000e+00 0.000000000000000000e+00 0.000000000000000000e+00 1.468500001310894598e-14 -6.256978761526399689e-15 0.000000000000000000e+00 8.193785615258606917e-16 -7.585409315961281304e-16 1.051495705673540694e-15 -2.497660864625908634e-15 1.323807930292283148e-14 0.000000000000000000e+00 5.090558676187695442e-15 -9.003136662947471100e-15 0.000000000000000000e+00 7.226618195607206950e-15 -1.780622335490182255e-14 0.000000000000000000e+00 -2.056776438614940698e-14 -6.148929914457632021e-16 1.051495705673540694e-15 -2.497660864625908634e-15 1.323807930292283148e-14 0.000000000000000000e+00 0.000000000000000000e+00 0.000000000000000000e+00 0.000000000000000000e+00 2.417186808393360443e-15 -8.547601808486653937e-15 0.000000000000000000e+00 5.495329636906676182e-15 -1.909521468824972006e-15 1.051495705673540694e-15 -2.497660864625908634e-15 1.323807930292283148e-14 0.000000000000000000e+00 0.000000000000000000e+00 0.000000000000000000e+00 0.000000000000000000e+00 4.240729931302767297e-15 -7.173255417438291126e-15 0.000000000000000000e+00 2.429631195369265574e-15 4.555462267784636061e-15
1.500001854402732135e+02 6.409718940374539318e-05 1.881912596943596187e-04 7.757183361929957536e-04 -3.959216972241640163e-05 7.768974553172096342e-04 2.455926357771593370e-03 -6.658347688360727367e-04 3.667686923920620862e-03 2.867593308192334378e-03 1.412544025230522268e-03 3.802740205823714717e-04 -2.364397848332760229e-03 -4.853269835628919475e-04 -7.843620583945973973e-03 -9.231016905891679253e-03 -2.368679464390391343e-02 2.547835606147036414e-02 4.756854486698461337e-02 1.432041528468293995e-02 -4.062412259855316399e-02 2.827853416339945122e-03 1.688383730251032284e-03 -2.879955656843143693e-04 -3.466933333927577462e-05 -2.406457388493959959e-03 -2.004543536142825572e-02 -2.887155345340117695e-04 -7.644818287578810214e-04 -5.269498315390802948e-03 -4.248655315989383909e-04 -1.829268885249408496e-03 -7.715870784319137088e-03 -1.128466229294402997e-04 5.339456077099535787e-05 1.744724429593999494e-03 -7.359686355557326469e-03 -3.144360131234017700e-03 7.448581600686508819e-02 2.434378989416639393e-03 2.631347798792964959e-02 -1.483307073368097216e-02 -4.467880587927129318e-03 4.878967911663730297e-03 1.009664440260634594e-02 -1.406644625759962807e-03 1.840821923980606734e-02 -1.188061310823795153e-02 -2.502049728629096581e-01 -1.291202792045197112e-01 3.013248763745074998e-01 -1.490968143362616724e-02 -1.747365330951128615e-01 -3.226250766457955943e-01 0.000000000000000000e+00 0.000000000000000000e+00 0.000000000000000000e+00 2.614831914510821418e-15 2.345574401175855128e-15 0.000000000000000000e+00 1.756826015314510678e-15 -5.328685730529951230e-16 0.000000000000000000e+00 6.908010798098121501e-16 -1.891008729370159024e-15 -8.405052930841400955e-17 0.000000000000000000e+00 0.000000000000000000e+00 0.000000000000000000e+00 0.000000000000000000e+00 3.320655564250325972e-15 1.413045556706891243e-15 0.000000000000000000e+00 1.456198827950560756e-15 8.812836904729023524e-15 6.908010798098121501e-16 -1.891008729370159024e-15 -8.405052930841400955e-17 0.000000000000000000e+00 1.707647577473842844e-16 -2.513857265200120886e-15 0.000000000000000000e+00 1.912314535712273238e-15 -3.597711528075241278e-15 0.000000000000000000e+00 -8.941611996378778384e-16 7.854991808224723690e-15 6.908010798098121501e-16 -1.891008729370159024e-15 -8.405052930841400955e-17 0.000000000000000000e+00 0.000000000000000000e+00 0.000000000000000000e+00 0.000000000000000000e+00 -4.558172359356037106e-15 -3.320743790962732658e-15 0.000000000000000000e+00 -3.945651296341231658e-16 7.482834011062964252e-15 6.908010798098121501e-16 -1.891008729370159024e-15 -8.405052930841400955e-17 0.000000000000000000e+00 0.000000000000000000e+00 0.000000000000000000e+00 0.000000000000000000e+00 3.578213802468479509e-16 -2.713212997071210333e-15 0.000000000000000000e+00 -1.412615666787444878e-15 7.643729294987813075e-15 7.194424807859691948e-03 1.114265818787022085e-02 3.439969520777296647e-02 3.461353459446926163e-03 -6.484686729918251631e-03 -4.193675361047514809e-03 -6.058968564471291923e-02 -3.119429997543735414e-02 2.523398770471975139e-01 9.441987224514981902e-02 -9.904943838541441226e-02 -1.852050153209508221e-01 0.000000000000000000e+00 0.000000000000000000e+00 0.000000000000000000e+00 8.995894766299276746e-18 -4.799899777342963626e-16 0.000000000000000000e+00 7.349652009786875280e-16 6.542216621067498265e-15 0.000000000000000000e+00 5.249465044039372115e-16 -7.902384629137034870e-16 -7.883898428354699103e-16 0.000000000000000000e+00 0.000000000000000000e+00 0.000000000000000000e+00 0.000000000000000000e+00 1.871378535659991323e-15 -1.243333262668276096e-15 0.000000000000000000e+00 1.332683497334052217e-15 1.280754011705697357e-15 5.249465044039372115e-16 -7.902384629137034870e-16 -7.883898428354699103e-16 0.000000000000000000e+00 8.326987904277715827e-16 -2.557970245949416173e-15 0.000000000000000000e+00 6.707278821523304031e-16 2.315688433813995209e-15 0.000000000000000000e+00 2.422971423049130953e-15 6.643036757630661110e-17 5.249465044039372115e-16 -7.902384629137034870e-16 -7.883898428354699103e-16 0.000000000000000000e+00 0.000000000000000000e+00 0.000000000000000000e+00 0.000000000000000000e+00 8.126083403051947860e-17 -1.133884452143624182e-15 0.000000000000000000e+00 -4.971130914602776796e-15 1.164302276947811359e-15 5.249465044039372115e-16 -7.902384629137034870e-16 -7.883898428354699103e-16 0.000000000000000000e+00 0.000000000000000000e+00 0.000000000000000000e+00 0.000000000000000000e+00 2.785129027127587183e-15 3.005051705755705750e-15 0.000000000000000000e+00 -1.602729733941282511e-16 -4.799374178038523946e-17
1.500005087453585020e+02 -4.648055267768544429e-04 1.705408559469690031e-03 4.043606704691803761e-04 -2.320383277508235222e-03 1.049839566740716316e-03 -1.647263121556931994e-03 -9.762409119903424750e-04 -8.841703292555279934e-04 -6.864748152986731300e-03 1.296011288116756272e-03 1.062835064736575947e-03 5.452531639282122942e-03 3.213975251563073966e-04 -7.110173171916958114e-03 1.666635277259846670e-03 -1.505495883961671796e-03 -4.141821275469633606e-04 -7.284172349775483966e-03 -2.613315006682373574e-03 8.662923743367835494e-03 2.407665582099824744e-03 2.863350396229185062e-03 3.772392962558725605e-04 -3.162819776264290134e-03 -9.420146740474313928e-04 -3.712816686095304214e-02 -1.371410606446612102e-03 -8.801203153884570732e-04 -1.011020359217996295e-02 -2.078664762740008772e-03 -2.471732019469890899e-03 -1.468951513622229060e-02 -3.481150249666293127e-07 -1.845447269499631221e-03 1.661303158362165003e-03 -9.864284424432826631e-03 -5.747763873260186736e-03 5.810595572986258089e-02 7.849729793081133486e-03 -1.486831810132920387e-02 -9.249735218595735511e-03 2.292688108747403634e-03 3.770973683782753022e-03 2.937259054024819044e-02 4.073348315437534672e-03 2.409035098866335600e-02 4.018571243525928885e-03 -1.737410404002194542e-01 -9.417267224875977560e-02 2.105922721592263236e-01 -1.356401445204699109e-02 -1.035144801370489753e-01 -1.908604961618653728e-01 0.000000000000000000e+00 0.000000000000000000e+00 0.000000000000000000e+00 4.406597342262747165e-16 -2.125250647273199190e-15 0.000000000000000000e+00 8.400407631406736205e-15 1.722936250496585408e-15 0.000000000000000000e+00 2.562300521442242394e-16 -5.256380561849942256e-15 -4.746536513622752052e-15 0.000000000000000000e+00 0.000000000000000000e+00 0.000000000000000000e+00 0.000000000000000000e+00 -5.879093351565871576e-15 -9.114221150596223251e-15 0.000000000000000000e+00 5.203275248326979535e-15 -1.717744553239707999e-14 2.562300521442242394e-16 -5.256380561849942256e-15 -4.746536513622752052e-15 0.000000000000000000e+00 -2.048230807564945397e-16 -1.837940047618009918e-14 0.000000000000000000e+00 -1.857647833019204698e-15 -2.199582926835056367e-14 0.000000000000000000e+00 -4.387472044032735741e-15 -1.162852967092069821e-14 2.562300521442242394e-16 -5.256380561849942256e-15 -4.746536513622752052e-15 0.000000000000000000e+00 0.000000000000000000e+00 0.000000000000000000e+00 0.000000000000000000e+00 -1.089103275158641830e-14 -1.251829530973902663e-14 0.000000000000000000e+00 -4.473285956868290539e-15 -1.757526470632738655e-15 2.562300521442242394e-16 -5.256380561849942256e-15 -4.746536513622752052e-15 0.000000000000000000e+00 0.000000000000000000e+00 0.000000000000000000e+00 0.000000000000000000e+00 -2.995752085101773544e-15 -1.417716959601442154e-14 0.000000000000000000e+00 -1.459282214153146690e-14 -6.206552875865573804e-15 2.136122198787810886e-02 1.473457523091006513e-02 7.114481926873603146e-02 6.527836188218528839e-03 -4.880838171020418503e-03 -7.760315395320177036e-03 -7.974818525101501354e-02 -2.989338661040019315e-02 2.951287268344833792e-01 9.959712076065166397e-02 -1.069929216473758798e-01 -2.716300242912308427e-01 0.000000000000000000e+00 0.000000000000000000e+00 0.000000000000000000e+00 5.206770103630016012e-15 1.993249118504812226e-16 0.000000000000000000e+00 -8.426823499829848316e-15 -8.700313212308502613e-15 0.000000000000000000e+00 5.144078219324680718e-15 -2.190048684092412373e-15 6.644761514914999493e-15 0.000000000000000000e+00 0.000000000000000000e+00 0.000000000000000000e+00 0.000000000000000000e+00 1.644852215085852492e-14 -8.126854238643339830e-15 0.000000000000000000e+00 3.321799904416022125e-15 2.993322833095307746e-15 5.144078219324680718e-15 -2.190048684092412373e-15 6.644761514914999493e-15 0.000000000000000000e+00 5.762593531708695383e-15 -1.344048326505955549e-14 0.000000000000000000e+00 1.101569985421036161e-14 -1.097206369293494948e-14 0.000000000000000000e+00 -9.869943385194136877e-15 -3.252318241307110062e-16 5.144078219324680718e-15 -2.190048684092412373e-15 6.644761514914999493e-15 0.000000000000000000e+00 0.000000000000000000e+00 0.000000000000000000e+00 0.000000000000000000e+00 5.768935478850984103e-15 -1.058024557667712135e-14 0.000000000000000000e+00 6.398208248027849915e-15 -5.243921048356228473e-15 5.144078219324680718e-15 -2.190048684092412373e-15 6.644761514914999493e-15 0.000000000000000000e+00 0.000000000000000000e+00 0.000000000000000000e+00 0.000000000000000000e+00 8.243874067287930567e-15 -5.661848828965479629e-15 0.000000000000000000e+00 -5.881255111002653780e-15 4.781649741746633450e-15
